PathFileType	4	(X/Y/Z)	C:/Users/beibeiliu/ov580/test_trc\sequence.11_training_dense_left.trc
DataRate	CameraRate	NumFrames	NumMarkers	Units	OrigDataRate	OrigDataStartFrame	OrigNumFrames
120	120	11	19	mm	120	76	100
Frame#	Time	ThumbCMC			ThumbMCP			ThumbIP			ThumbTip			IndexMCP			IndexPIP			IndexTip			MiddleMCP			MiddlePIP			MiddleTip			RingMCP			RingPIP			RingTip			PinkyMCP			PinkyPIP			PinkyTip			BackHand1			BackHand2			BackHand3	
		X0	Y0	Z0	X1	Y1	Z1	X2	Y2	Z2	X3	Y3	Z3	X4	Y4	Z4	X5	Y5	Z5	X6	Y6	Z6	X7	Y7	Z7	X8	Y8	Z8	X9	Y9	Z9	X10	Y10	Z10	X11	Y11	Z11	X12	Y12	Z12	X13	Y13	Z13	X14	Y14	Z14	X15	Y15	Z15	X16	Y16	Z16	X17	Y17	Z17	X18	Y18	Z18	
75	0.625	-129.129	20.3091	50.6195	-116.911	4.2375	29.947	-109.165	-3.94726	10.2539	-106.251	-15.9014	-7.76773	-137.906	20.6605	-16.8099	-131.59	4.13762	-39.0276	-122.606	-15.3829	-50.1823	-156.271	18.1849	-23.5279	-156.58	3.24971	-45.7704	-151.121	-22.464	-62.132	-177.991	11.7826	-15.9314	-173.601	1.78502	-38.4011	-171.618	-18.1377	-56.0823	-192.461	5.92141	-0.796825	-197.999	-2.92638	-19.201	-191.174	-14.425	-38.8089	-176.62	28.5332	24.9768	-178.593	35.4538	54.912	-156.277	38.9693	40.9663	
76	0.633333	-128.215	21.2005	48.645	-114.797	5.88419	31.0979	-112.441	-2.53077	8.61652	-104.719	-13.5772	-9.27404	-131.931	23.53	-14.0042	-126.069	8.6427	-37.6179	-124.346	-13.0685	-49.1707	-156.043	19.3636	-25.3998	-156.562	4.8515	-46.743	-149.674	-16.8633	-61.34	-173.958	14.6406	-15.5124	-176.666	0.939462	-39.8882	-172.742	-14.3615	-53.1012	-195.012	6.67737	-3.06363	-197.172	-1.73444	-19.6061	-192.915	-15.3839	-41.3622	-177.922	28.8407	29.613	-182.854	35.4381	50.355	-156.013	39.9586	36.6221	
77	0.641667	-132.453	21.6584	51.0181	-117.715	7.41856	29.6142	-109.087	-2.1221	9.17998	-105.295	-11.3095	-7.93927	-134.855	23.5522	-15.362	-127.222	9.03002	-38.2929	-123.484	-14.3437	-50.7313	-154.274	20.948	-23.9052	-153.051	7.49801	-45.0906	-151.388	-17.3829	-60.5504	-175.312	13.6397	-17.28	-176.083	0.231088	-40.2259	-171.08	-15.5295	-56.2381	-192.543	8.07267	-5.33688	-195.003	-1.85248	-22.9061	-190.245	-12.6619	-37.7371	-179.899	31.7218	26.474	-181.86	34.9749	52.2014	-156.702	40.5237	36.8239	
78	0.65	-127.847	22.0258	52.3535	-116.335	7.93742	27.9651	-110.506	-1.06425	9.42956	-108.767	-10.3024	-9.48591	-132.876	22.5467	-16.9045	-125.8	10.7797	-36.5156	-122.388	-11.427	-48.6981	-157.736	20.7074	-21.3199	-152.194	4.83788	-48.3106	-147.198	-15.9054	-61.8174	-174.29	15.5342	-14.3221	-176.257	2.39459	-39.3846	-170.993	-11.1061	-53.4506	-190.923	8.50546	-0.884138	-194.03	-1.61508	-24.0894	-191.764	-11.9012	-39.6053	-175.937	30.2067	29.6792	-179.39	34.9559	51.072	-152.266	39.4309	39.1697	
79	0.658333	-129.304	20.991	50.4857	-114.74	7.08921	29.9126	-106.518	-1.92031	8.86812	-105.598	-11.6483	-9.83531	-134.51	22.4946	-15.1838	-128.274	6.23207	-39.2081	-121.867	-11.5837	-49.3308	-156.77	19.7879	-23.0807	-151.661	8.01886	-45.0086	-150.669	-15.5352	-61.1074	-173.287	15.333	-19.1786	-175.443	2.52703	-38.429	-169.074	-10.8109	-53.9778	-191.529	8.89199	-2.62121	-195.989	0.471902	-20.0461	-192.474	-11.1816	-37.4574	-177.838	29.5226	29.8395	-177.902	37.4429	50.4988	-152.839	40.962	38.4301	
80	0.666667	-130.63	19.7841	50.4501	-112.69	5.39016	33.3169	-110.136	-2.29858	9.44757	-107.481	-13.3838	-7.12643	-132.957	21.088	-18.8634	-128.557	4.7356	-39.2596	-120.516	-16.6481	-49.1059	-156.32	19.1532	-23.0717	-154.132	5.58479	-47.3634	-149.64	-15.6194	-61.1463	-172.016	15.0264	-15.3669	-171.683	4.53233	-36.2975	-166.719	-13.4479	-55.2322	-195.295	7.60341	-4.22639	-192.369	0.741855	-19.9548	-194.049	-11.5808	-37.5483	-179.087	31.1184	24.343	-175.609	35.7974	52.2715	-152.072	39.68	39.9366	
81	0.675	-126.311	18.2457	52.1513	-113.654	2.7813	30.9838	-108.459	-5.2453	9.50441	-106.862	-16.5592	-6.86261	-132.439	19.3802	-15.704	-130.329	5.4769	-36.8355	-126.336	-18.9508	-49.2666	-152.801	18.6043	-23.3601	-150.601	5.86577	-46.9258	-154.119	-17.9098	-62.3176	-174.523	13.9216	-14.9551	-175.786	3.7903	-36.5539	-168.043	-14.639	-56.0847	-190.919	8.3035	-5.64811	-193.589	0.658318	-21.8555	-196.415	-14.1778	-38.5817	-179.051	29.7173	27.6067	-179.983	33.7842	51.4574	-152.132	37.3169	39.1605	
82	0.683333	-127.92	16.8829	51.5808	-116.592	1.32277	34.4328	-110.941	-8.52105	9.13519	-110.285	-17.3703	-8.56076	-131.872	18.7591	-16.3746	-128.5	4.27554	-36.389	-128.985	-18.4276	-48.7549	-155.466	18.3402	-19.9426	-153.487	2.18031	-47.7101	-155.031	-20.9226	-61.9638	-175.009	13.8301	-15.8194	-177.353	2.19744	-36.5652	-168.966	-13.815	-53.7567	-192.443	8.41609	0.262104	-197.082	0.0375371	-20.2615	-196.142	-14.0631	-35.4576	-175.298	29.9546	25.6434	-176.64	35.2166	52.6269	-153.614	37.7666	41.4973	
83	0.691667	-131.004	14.6215	54.0695	-114.471	-1.12499	33.0026	-112.659	-9.14228	10.7243	-108.888	-20.0365	-8.61252	-133.197	17.1341	-14.9568	-131.443	2.13172	-37.2882	-128.934	-19.1267	-49.7043	-159.147	16.6615	-24.208	-158.798	1.36357	-45.9659	-158.272	-21.1859	-59.4249	-176.037	13.5973	-14.1454	-178.037	1.9898	-36.2852	-174.721	-16.8384	-53.7038	-196.16	7.2625	0.0660403	-200.549	-2.01252	-18.4607	-193.977	-16.6254	-36.5726	-179.364	27.6699	26.7507	-180.617	32.621	53.3307	-152.784	36.1797	39.6943	
84	0.7	-128.75	15.2393	49.7664	-114.42	-0.554619	30.3449	-106.61	-9.00015	9.77525	-106.417	-19.4159	-7.57078	-134.386	17.4213	-15.2465	-133.365	-0.499903	-39.6892	-128.139	-18.3287	-50.4558	-155.774	15.2706	-24.3769	-159.062	2.29874	-45.3969	-155.724	-23.6892	-60.1796	-178.139	12.8171	-15.7915	-176.016	-1.05417	-39.4079	-172.367	-19.6016	-53.4573	-193.934	8.23923	-3.35487	-200.305	-3.18316	-19.7	-193.252	-16.9289	-36.1308	-180.56	29.2242	26.1339	-178.597	32.2035	55.3434	-151.663	35.7377	39.4962	
85	0.708333	-127.853	13.4991	51.8731	-116.537	-0.20937	29.8007	-110.298	-8.32891	10.5	-104.498	-17.7517	-9.11526	-135.871	15.4745	-17.5941	-133.882	2.8772	-36.6447	-130.499	-19.3923	-51.1861	-155.842	15.8661	-22.1894	-155.499	-0.985244	-47.2923	-155.249	-23.6991	-58.9	-179.305	12.0378	-15.9125	-174.396	-0.447994	-38.2392	-174.196	-22.436	-52.5703	-197.979	6.71184	-3.92198	-198.241	-3.23811	-19.7542	-195.366	-22.5094	-37.4156	-179.892	26.5967	29.0431	-176.34	31.8979	51.6245	-150.758	34.082	42.4203	
